<svg width="24" height="24" viewBox="0 0 24 24" fill="none" xmlns="http://www.w3.org/2000/svg">
<path d="M12 24C18.6274 24 24 18.6274 24 12C24 5.37258 18.6274 0 12 0C5.37258 0 0 5.37258 0 12C0 18.6274 5.37258 24 12 24Z" fill="#C5F74F"/>
<path d="M16.2 7.8H7.8C7.35817 7.8 7 8.15817 7 8.6V15.4C7 15.8418 7.35817 16.2 7.8 16.2H16.2C16.6418 16.2 17 15.8418 17 15.4V8.6C17 8.15817 16.6418 7.8 16.2 7.8Z" stroke="#121212" stroke-width="1.5"/>
<path d="M9 11L15 11" stroke="#121212" stroke-width="1.5" stroke-linecap="round"/>
<path d="M9 13L13 13" stroke="#121212" stroke-width="1.5" stroke-linecap="round"/>
</svg> 